<svg width="184" height="184" viewBox="0 0 184 184" fill="none" xmlns="http://www.w3.org/2000/svg">
<rect x="29.5407" y="2.79887" width="154" height="154" transform="rotate(10 29.5407 2.79887)" stroke="#161616" stroke-width="4"/>
<path d="M28.776 85.728L28.664 86.764L29.28 85.98L36 78.392H41.264L32.752 87.632L41.292 99H36.14L29.784 90.208L28.776 91.216V99H24.66V78.392H28.776V85.728ZM44.3748 78.392H48.4348V99H44.3748V78.392ZM72.2058 99.84L56.5818 85.728L57.7858 86.4L57.8698 99H53.7538V77.58H53.9218L69.2098 91.636L68.3138 91.244L68.2298 78.392H72.3178V99.84H72.2058ZM94.3408 96.928C94.0982 97.1893 93.7155 97.46 93.1928 97.74C92.6702 98.0013 92.0635 98.244 91.3728 98.468C90.7008 98.692 90.0102 98.8693 89.3008 99C88.5915 99.1493 87.9195 99.224 87.2848 99.224C85.6048 99.224 84.0928 98.9813 82.7488 98.496C81.4048 97.992 80.2568 97.3013 79.3048 96.424C78.3528 95.528 77.6248 94.4733 77.1208 93.26C76.6168 92.0466 76.3648 90.7213 76.3648 89.284C76.3648 87.3986 76.6448 85.7653 77.2048 84.384C77.7835 82.984 78.5582 81.8266 79.5288 80.912C80.5182 79.9786 81.6475 79.288 82.9168 78.84C84.2048 78.392 85.5488 78.168 86.9488 78.168C88.2742 78.168 89.4875 78.3173 90.5888 78.616C91.6902 78.896 92.6235 79.2506 93.3888 79.68L92.0728 83.46C91.7368 83.2733 91.2888 83.0866 90.7288 82.9C90.1688 82.7133 89.5995 82.564 89.0208 82.452C88.4422 82.3213 87.9288 82.256 87.4808 82.256C86.3608 82.256 85.3715 82.396 84.5128 82.676C83.6542 82.956 82.9262 83.376 82.3288 83.936C81.7502 84.496 81.3115 85.196 81.0128 86.036C80.7142 86.8573 80.5648 87.8186 80.5648 88.92C80.5648 89.8906 80.7328 90.768 81.0688 91.552C81.4048 92.3173 81.8715 92.9706 82.4688 93.512C83.0848 94.0533 83.8035 94.464 84.6248 94.744C85.4648 95.024 86.3888 95.164 87.3968 95.164C87.9755 95.164 88.5075 95.1266 88.9928 95.052C89.4782 94.9586 89.8888 94.8186 90.2248 94.632V92.14H86.6688V88.22H94.3408V96.928ZM40.116 125.292C39.892 125.479 39.472 125.731 38.856 126.048C38.2587 126.365 37.5213 126.645 36.644 126.888C35.7667 127.131 34.796 127.243 33.732 127.224C32.108 127.187 30.652 126.897 29.364 126.356C28.0947 125.796 27.012 125.04 26.116 124.088C25.2387 123.136 24.5667 122.044 24.1 120.812C23.6333 119.58 23.4 118.264 23.4 116.864C23.4 115.296 23.6333 113.859 24.1 112.552C24.5853 111.245 25.2667 110.116 26.144 109.164C27.04 108.212 28.104 107.475 29.336 106.952C30.568 106.429 31.9307 106.168 33.424 106.168C34.8053 106.168 36.028 106.355 37.092 106.728C38.156 107.101 39.024 107.503 39.696 107.932L38.1 111.768C37.6333 111.413 37.008 111.049 36.224 110.676C35.4587 110.284 34.572 110.088 33.564 110.088C32.78 110.088 32.024 110.256 31.296 110.592C30.5867 110.909 29.952 111.367 29.392 111.964C28.8507 112.561 28.4213 113.261 28.104 114.064C27.7867 114.848 27.628 115.707 27.628 116.64C27.628 117.629 27.768 118.535 28.048 119.356C28.3467 120.177 28.7667 120.887 29.308 121.484C29.8493 122.063 30.4933 122.511 31.24 122.828C32.0053 123.145 32.864 123.304 33.816 123.304C34.9173 123.304 35.86 123.127 36.644 122.772C37.428 122.417 38.0253 122.044 38.436 121.652L40.116 125.292ZM61.5154 106.392V127H57.4554V118.628H48.2434V127H44.1834V106.392H48.2434V114.708H57.4554V106.392H61.5154ZM64.5001 127L73.7961 105.58H74.0201L83.3161 127H78.6121L72.6761 111.936L75.6161 109.92L68.5041 127H64.5001ZM70.8561 119.552H77.0441L78.4721 122.968H69.5961L70.8561 119.552ZM92.5642 106.392C93.8522 106.392 95.0002 106.56 96.0082 106.896C97.0162 107.213 97.8562 107.68 98.5282 108.296C99.2188 108.893 99.7415 109.621 100.096 110.48C100.451 111.32 100.628 112.272 100.628 113.336C100.628 114.176 100.497 115.016 100.236 115.856C99.9935 116.696 99.5828 117.461 99.0042 118.152C98.4442 118.843 97.6975 119.403 96.7642 119.832C95.8308 120.243 94.6735 120.448 93.2922 120.448H90.3802V127H86.3202V106.392H92.5642ZM93.2642 116.528C93.8802 116.528 94.3935 116.425 94.8042 116.22C95.2148 116.015 95.5322 115.753 95.7562 115.436C95.9988 115.119 96.1668 114.792 96.2602 114.456C96.3722 114.101 96.4282 113.775 96.4282 113.476C96.4282 113.252 96.3908 112.972 96.3162 112.636C96.2602 112.281 96.1295 111.927 95.9242 111.572C95.7188 111.217 95.4015 110.919 94.9722 110.676C94.5615 110.433 94.0015 110.312 93.2922 110.312H90.3802V116.528H93.2642ZM97.0722 119.048L102.168 127H97.4362L92.2282 119.16L97.0722 119.048ZM105.515 106.392H109.575V123.08H119.263V127H105.515V106.392ZM123.453 106.392H137.509V110.312H127.513V114.708H136.361V118.628H127.513V123.08H137.901V127H123.453V106.392ZM153.105 111.376C152.321 110.947 151.519 110.592 150.697 110.312C149.895 110.032 149.139 109.892 148.429 109.892C147.552 109.892 146.861 110.069 146.357 110.424C145.853 110.779 145.601 111.311 145.601 112.02C145.601 112.505 145.788 112.944 146.161 113.336C146.553 113.709 147.048 114.045 147.645 114.344C148.261 114.643 148.896 114.913 149.549 115.156C150.147 115.38 150.735 115.651 151.313 115.968C151.911 116.267 152.443 116.649 152.909 117.116C153.376 117.564 153.749 118.133 154.029 118.824C154.309 119.496 154.449 120.327 154.449 121.316C154.449 122.361 154.179 123.332 153.637 124.228C153.096 125.124 152.303 125.852 151.257 126.412C150.212 126.953 148.924 127.224 147.393 127.224C146.609 127.224 145.807 127.149 144.985 127C144.183 126.832 143.389 126.589 142.605 126.272C141.821 125.936 141.065 125.516 140.337 125.012L142.129 121.848C142.615 122.203 143.137 122.52 143.697 122.8C144.276 123.061 144.855 123.267 145.433 123.416C146.012 123.565 146.544 123.64 147.029 123.64C147.515 123.64 148 123.575 148.485 123.444C148.989 123.295 149.4 123.052 149.717 122.716C150.053 122.38 150.221 121.913 150.221 121.316C150.221 120.905 150.081 120.532 149.801 120.196C149.54 119.86 149.176 119.552 148.709 119.272C148.261 118.992 147.767 118.749 147.225 118.544C146.591 118.301 145.937 118.021 145.265 117.704C144.593 117.387 143.959 117.004 143.361 116.556C142.783 116.089 142.307 115.52 141.933 114.848C141.579 114.157 141.401 113.317 141.401 112.328C141.401 111.133 141.663 110.097 142.185 109.22C142.727 108.343 143.483 107.652 144.453 107.148C145.424 106.625 146.544 106.336 147.813 106.28C149.475 106.28 150.819 106.476 151.845 106.868C152.891 107.26 153.824 107.727 154.645 108.268L153.105 111.376ZM24.66 155V133.552H24.688L36.14 149.792L34.404 149.4L45.828 133.552H45.884V155H41.824V142.708L42.076 144.808L35.104 154.72H35.048L27.88 144.808L28.58 142.876V155H24.66ZM48.8868 155L58.1828 133.58H58.4068L67.7028 155H62.9988L57.0628 139.936L60.0028 137.92L52.8908 155H48.8868ZM55.2428 147.552H61.4308L62.8588 150.968H53.9828L55.2428 147.552ZM76.9509 134.392C78.2389 134.392 79.3869 134.56 80.3949 134.896C81.4029 135.213 82.2429 135.68 82.9149 136.296C83.6055 136.893 84.1282 137.621 84.4829 138.48C84.8375 139.32 85.0149 140.272 85.0149 141.336C85.0149 142.176 84.8842 143.016 84.6229 143.856C84.3802 144.696 83.9695 145.461 83.3909 146.152C82.8309 146.843 82.0842 147.403 81.1509 147.832C80.2175 148.243 79.0602 148.448 77.6789 148.448H74.7669V155H70.7069V134.392H76.9509ZM77.6509 144.528C78.2669 144.528 78.7802 144.425 79.1909 144.22C79.6015 144.015 79.9189 143.753 80.1429 143.436C80.3855 143.119 80.5535 142.792 80.6469 142.456C80.7589 142.101 80.8149 141.775 80.8149 141.476C80.8149 141.252 80.7775 140.972 80.7029 140.636C80.6469 140.281 80.5162 139.927 80.3109 139.572C80.1055 139.217 79.7882 138.919 79.3589 138.676C78.9482 138.433 78.3882 138.312 77.6789 138.312H74.7669V144.528H77.6509ZM81.4589 147.048L86.5549 155H81.8229L76.6149 147.16L81.4589 147.048ZM94.0182 141.728L93.9062 142.764L94.5222 141.98L101.242 134.392H106.506L97.9942 143.632L106.534 155H101.382L95.0262 146.208L94.0182 147.216V155H89.9022V134.392H94.0182V141.728ZM109.617 134.392H123.673V138.312H113.677V142.708H122.525V146.628H113.677V151.08H124.065V155H109.617V134.392ZM126.865 134.392H140.753V138.312H135.741V155H131.681V138.312H126.865V134.392Z" fill="#161616"/>
</svg>
